<svg id="Capa_1" enable-background="new 0 0 512 512" height="512" viewBox="0 0 512 512" width="512" xmlns="http://www.w3.org/2000/svg" xmlns:xlink="http://www.w3.org/1999/xlink"><linearGradient id="SVGID_1_" gradientUnits="userSpaceOnUse" x1="12.034" x2="499.966" y1="256" y2="256"><stop offset=".0485" stop-color="#ffdbed"/><stop offset=".9993" stop-color="#d2deff"/></linearGradient><linearGradient id="SVGID_2_" gradientUnits="userSpaceOnUse" x1="256" x2="256" y1="121.468" y2="355.788"><stop offset=".0028" stop-color="#ff7eb8" stop-opacity="0"/><stop offset="1" stop-color="#ff7eb8" stop-opacity=".6"/></linearGradient><g><g><g><path d="m286.593 4.867c-94.351 27.746-75.427 93.585-85.98 166.539-13.171 91.052-70.095 44.365-135.496 93.538-113.054 85.001-30.931 272.636 109.468 244.14 74.552-15.131 89.786-70.095 120.193-128.824 39.333-75.973 104.558-55.26 163.066-104.857 118.655-100.582-37.403-309.897-171.251-270.536z" fill="url(#SVGID_1_)"/></g><g><g><path d="m459.739 390.532h-407.478c-5.523 0-10-4.477-10-10v-249.064c0-5.523 4.477-10 10-10h407.479c5.523 0 10 4.477 10 10v249.064c-.001 5.523-4.478 10-10.001 10z" fill="#6583fe"/><path d="m469.739 355.788v-224.32c0-5.523-4.477-10-10-10h-407.478c-5.523 0-10 4.477-10 10v224.32z" fill="#97ffd2"/><path d="m42.261 255.198h427.479v100.59h-427.479z" fill="#ffc4df"/><g><path d="m343 447.788h-174c-5.523 0-10-4.477-10-10v-47.257h194v47.257c0 5.523-4.477 10-10 10z" fill="#9fb0fe"/><path d="m159 390.532h194v17.757h-194z" fill="#8399fe"/><g fill="#6583fe"><ellipse cx="187.25" cy="418.788" rx="8.839" ry="8.839" transform="matrix(.16 -.987 .987 .16 -256.125 536.538)"/><ellipse cx="324.75" cy="418.788" rx="8.839" ry="8.839" transform="matrix(.16 -.987 .987 .16 -140.65 672.263)"/></g><path d="m169 64.212h174c5.523 0 10 4.477 10 10v47.257h-194v-47.257c0-5.523 4.477-10 10-10z" fill="#9fb0fe"/><g fill="#6583fe"><ellipse cx="324.75" cy="93.212" rx="8.839" ry="8.839" transform="matrix(.16 -.987 .987 .16 180.723 398.838)"/><ellipse cx="187.25" cy="93.212" rx="8.839" ry="8.839" transform="matrix(.16 -.987 .987 .16 65.248 263.113)"/></g></g><g><g><ellipse cx="256" cy="243.139" fill="#ff7eb8" rx="97.616" ry="97.616" transform="matrix(.707 -.707 .707 .707 -96.945 252.233)"/><path d="m319.773 233.413v83.63c-17.1 14.77-39.39 23.71-63.77 23.71-5.8 0-11.48-.51-17-1.48v-35.33h-26.87c-3.99 0-7.03-3.58-6.38-7.52l.91-5.53 1.65-10.02 1.81-10.99h-11.43c-3.57 0-6.46-2.9-6.46-6.47v-30c0-35.22 28.55-63.77 63.77-63.77s63.77 28.55 63.77 63.77z" fill="#fff"/></g><g><g><path d="m248.393 284.313c-.5.27-12.55 6.53-41.73 6.58l1.65-10.02c25.04-.25 35.29-5.35 35.4-5.4 2.44-1.25 5.46-.31 6.73 2.12s.37 5.42-2.05 6.72z" fill="#ff7eb8"/></g><g><path d="m241.291 244.808c-2.762 0-5-2.239-5-5v-2.263c0-2.761 2.238-5 5-5s5 2.239 5 5v2.263c0 2.762-2.238 5-5 5z" fill="#ff7eb8"/></g><g><path d="m282.637 272.207c-5.918 0-11.835-2.252-16.34-6.757-1.953-1.952-1.953-5.118-.001-7.071 1.953-1.953 5.118-1.954 7.071 0 5.111 5.11 13.427 5.11 18.538 0 5.11-5.111 5.11-13.426 0-18.537-5.112-5.111-13.428-5.111-18.538 0-1.953 1.952-5.118 1.953-7.071-.001-1.952-1.953-1.952-5.119.001-7.071 9.012-9.008 23.671-9.009 32.679 0 9.01 9.009 9.01 23.669.001 32.679-4.505 4.505-10.423 6.758-16.34 6.758z" fill="#ff7eb8"/></g></g></g><path d="m437 169.643h-71.214c-2.762 0-5-2.239-5-5v-14.12c0-2.761 2.238-5 5-5h71.214c2.761 0 5 2.239 5 5v14.12c0 2.762-2.239 5-5 5z" fill="#fff"/><path d="m384.906 169.643h-19.12c-2.762 0-5-2.239-5-5v-14.12c0-2.761 2.238-5 5-5h19.12z" fill="#9fb0fe"/><path d="m106.555 161.014c0-9.419-7.663-17.082-17.082-17.082s-17.082 7.663-17.082 17.082c0 4.645 1.869 8.858 4.889 11.941-3.019 3.082-4.889 7.295-4.889 11.941 0 2.839 2.302 5.141 5.141 5.141s5.141-2.302 5.141-5.141c0-3.749 3.05-6.8 6.8-6.8 3.749 0 6.8 3.051 6.8 6.8 0 2.839 2.302 5.141 5.141 5.141s5.141-2.302 5.141-5.141c0-4.645-1.869-8.858-4.889-11.941 3.02-3.082 4.889-7.295 4.889-11.941zm-17.082-6.8c3.749 0 6.8 3.05 6.8 6.8 0 3.749-3.05 6.8-6.8 6.8-3.749 0-6.8-3.05-6.8-6.8 0-3.749 3.051-6.8 6.8-6.8z" fill="#fff"/><path d="m101.64 211.458v107.33c0 2.76-2.24 5-5 5h-14.33c-2.76 0-5-2.24-5-5v-107.33c0-2.76 2.24-5 5-5h14.33c2.76 0 5 2.24 5 5z" fill="#fff"/><path d="m101.64 255.198v63.59c0 2.76-2.24 5-5 5h-14.33c-2.76 0-5-2.24-5-5v-63.59z" fill="#ffdbed"/></g><path d="m117.556 74.333c-2.762 0-5-2.238-5-5 0-3.309-2.691-6-6-6-2.762 0-5-2.238-5-5s2.238-5 5-5c3.309 0 6-2.691 6-6 0-2.762 2.238-5 5-5s5 2.238 5 5c0 3.309 2.691 6 6 6 2.762 0 5 2.238 5 5s-2.238 5-5 5c-3.309 0-6 2.691-6 6 0 2.762-2.239 5-5 5z" fill="#ff7eb8"/><path d="m399.038 463.788c-2.762 0-5-2.238-5-5 0-3.309-2.691-6-6-6-2.762 0-5-2.238-5-5s2.238-5 5-5c3.309 0 6-2.691 6-6 0-2.762 2.238-5 5-5s5 2.238 5 5c0 3.309 2.691 6 6 6 2.762 0 5 2.238 5 5s-2.238 5-5 5c-3.309 0-6 2.691-6 6 0 2.762-2.238 5-5 5z" fill="#6583fe"/><path d="m106.556 464.099c-1.326 0-2.598-.526-3.535-1.465l-11.311-11.311c-.938-.938-1.465-2.209-1.465-3.535s.527-2.598 1.465-3.536l11.311-11.31c1.951-1.951 5.119-1.952 7.07.001l11.31 11.31c1.953 1.952 1.953 5.118.001 7.07l-11.31 11.311c-.939.937-2.21 1.465-3.536 1.465zm-4.24-16.311 4.239 4.239 4.238-4.239-4.238-4.238z" fill="#ff7eb8"/><g fill="#01eca5"><path d="m443.889 453.099c-1.279 0-2.56-.488-3.535-1.465l-11.31-11.311c-.939-.938-1.465-2.209-1.465-3.535s.527-2.598 1.465-3.536l11.31-11.31c1.951-1.951 5.119-1.951 7.07 0l11.311 11.31c.938.938 1.465 2.21 1.465 3.536s-.526 2.598-1.465 3.535l-11.311 11.311c-.976.976-2.256 1.465-3.535 1.465zm-4.24-16.311 4.239 4.239 4.239-4.239-4.239-4.239z"/><path d="m72.392 100.683c-1.279 0-2.56-.488-3.535-1.464l-11.311-11.31c-.938-.938-1.465-2.21-1.465-3.536s.526-2.598 1.465-3.535l11.311-11.311c1.951-1.953 5.119-1.953 7.07 0l11.311 11.311c.938.938 1.465 2.209 1.465 3.535s-.527 2.598-1.465 3.536l-11.311 11.31c-.976.975-2.256 1.464-3.535 1.464zm-4.24-16.31 4.239 4.239 4.239-4.239-4.239-4.239z"/></g></g></g><path d="m469.739 355.788v-224.32c0-5.523-4.477-10-10-10h-407.478c-5.523 0-10 4.477-10 10v224.32z" fill="url(#SVGID_2_)"/></g></svg>